<?xml version="1.0" encoding="utf-8"?>
<!-- Generator: Adobe Illustrator 28.1.0, SVG Export Plug-In . SVG Version: 6.00 Build 0)  -->
<svg version="1.1" id="Layer_1" xmlns="http://www.w3.org/2000/svg" xmlns:xlink="http://www.w3.org/1999/xlink" x="0px" y="0px"
	 viewBox="0 0 512 512" style="enable-background:new 0 0 512 512;" xml:space="preserve">
<style type="text/css">
	.st0{fill:#231F20;}
	.st1{fill:#79BCE7;}
	.st2{fill:#79BCE7;stroke:#231F20;stroke-width:6.0381;stroke-linejoin:bevel;stroke-miterlimit:10;}
	.st3{fill:none;stroke:#231F20;stroke-width:12.0762;stroke-miterlimit:10;}
	.st4{fill:none;stroke:#231F20;stroke-width:6.0381;stroke-miterlimit:10;}
</style>
<g>
	<path class="st0" d="M85.39,291.42c4.67-1.53,8.19-4.97,12.26-7.49c5.45-3.38,7.89-3.18,11.63,1.8
		c25.47,33.93,50.91,67.88,76.35,101.84c3.85,5.14,3.8,5.19,9.17,1.73c3.73-2.41,7.32-5.08,11.23-7.16c2.35-1.26,2.55-2.1,1.01-4.14
		c-12.02-15.9-23.97-31.84-35.94-47.78c-11.48-15.29-22.93-30.61-34.44-45.87c-2.15-2.85-2.82-5.52,0.08-8.2
		c2.73-2.53,5.77-2.48,8.67-0.04c1.25,1.05,1.91,4.19,4.24,2.16c2.52-2.21,7.05-2.48,6.97-7.41c-0.21-12.8-0.21-25.6-0.24-38.41
		c-0.02-14.02,0.09-28.03,0.01-42.05c-0.05-8.59,3.36-16.12,7.52-23.17c6.19-10.47,9.02-21.73,10.39-33.64
		c0.65-5.65,1.32-11.37,3.78-16.73c3.49-7.61,9.65-10.61,17.45-10.76c2.68-0.05,3.36-0.47,3.32-3.3c-0.2-16.44-0.2-32.88-0.12-49.32
		c0.05-10.38,10.02-19.88,22.37-19.88c19.41-0.01,128.29-0.02,163.33-0.01c10.13,0,18.63,6.9,21.58,16.45
		c0.9,2.92,1.05,5.66,1.07,8.51c0.09,13.48,0.08,26.95,0.09,40.43c0,4.48-2.37,6.88-6.62,6.74c-4.06-0.13-5.81-2.39-5.79-7.04
		c0.07-14.55,0.12-29.11,0.07-43.66c-0.02-5.92-4.32-10.06-10.32-10.07c-54.31-0.03-108.62-0.03-162.93,0
		c-6.72,0-10.59,4.21-10.59,10.98c0.01,17.79-0.04,35.58-0.12,53.36c-0.01,1.25-0.03,2.36,0.84,3.38
		c9.13,10.68,10.27,23.47,8.99,36.58c-1.09,11.21-4.72,21.91-8.57,32.46c-0.91,2.49-1.12,4.86-1.12,7.46
		c0.05,28.03,0,56.06-0.06,84.09c-0.02,8.31,3.57,11.95,12.05,11.94c48.52-0.03,97.03-0.08,145.55-0.11c4.85,0,9.7,0.13,14.55,0.21
		c7.68,0.12,11.79-3.97,11.79-11.56c-0.02-49.05-0.01-98.11-0.02-147.16c0-1.88-0.2-3.77-0.14-5.65c0.08-2.62,1.16-4.76,3.74-5.68
		c2.43-0.87,5.15-0.88,6.64,1.38c1.59,2.39,3.19,1.72,5.11,1.06c13.24-4.52,27.54,1.81,32.81,14.52c3.46,8.33,1.23,18.74-5.59,24.79
		c-2.08,1.85-1.88,2.17,0.42,3.73c15.27,10.36,14.2,31.31-1.68,40.37c-2.45,1.4-4.97,2.7-7.55,3.84c-2.04,0.9-3.16,1.34-0.59,3.27
		c15.61,11.72,13.31,32.82-4.4,41.33c-4.73,2.27-9.39,4.69-14.14,6.92c-1.79,0.84-2.57,1.76-2.44,3.97
		c0.29,4.7,0.06,9.42,0.06,14.14c0,12.21-8.83,21.68-21.12,22.07c-10.1,0.32-20.21,0.28-30.31,0c-3.65-0.1-5.82,0.97-7.98,3.94
		c-12.1,16.58-26.38,30.95-44.12,41.55c-12.29,7.34-25.83,11.27-39.79,13.96c-10.35,1.99-20.81,2.69-31.32,2.86
		c-1.08,0.02-2.17,0.07-3.23-0.11c-3.34-0.56-5.5-2.46-5.36-5.97c0.13-3.36,2.45-5.08,5.59-5.3c4.7-0.33,9.42-0.4,14.14-0.47
		c10.07-0.16,19.76-2.56,29.45-4.95c25.76-6.34,44.3-22.96,60.7-42.64c0.59-0.71,1.47-1.35,0.83-2.42c-0.5-0.84-1.44-0.83-2.17-0.56
		c-3.71,1.33-7.44,0.23-11.16,0.23c-33.42,0-66.84-0.01-100.27-0.05c-11.23-0.01-19.88-7.21-22.16-18.29
		c0.48-1.48,0.28-2.95-0.09-4.42c0.01-1.01,0.01-2.03,0.02-3.04c0.1-1.05,0.29-2.11,0.29-3.16c0.02-24.64,0.02-49.27,0-73.91
		c0-1.06-0.2-2.11-0.3-3.17c-0.93-6.49,1.52-12.18,3.79-18.08c5.72-14.92,8.53-30.23,3.7-46.04c-1.17-3.83-3.21-7.12-7.39-8.45
		c-5.5-1.74-8.82,0.07-10.39,5.6c-2.03,7.17-2.31,14.61-3.55,21.9c-1.33,7.78-3.54,15.32-7.71,21.95c-7.09,11.28-9.33,23.4-9,36.55
		c0.59,23.28,0.37,46.59,0.74,69.88c0.07,4.22-1.36,6.9-4.88,8.87c-2.57,1.44-5.02,3.1-7.55,4.62c-1.41,0.85-1.63,1.56-0.52,3.04
		c21.73,28.78,43.39,57.62,65.08,86.43c3.49,4.63,3.22,7.23-1.69,10.28c-7.28,4.53-13.96,10-21.8,13.64
		c-1.42,0.66-1.98,1.46-0.35,2.87c1.49,1.29,2.59,3.06,3.78,4.68c3.03,4.12,2.73,6.58-1.47,9.31c-8.56,5.55-16.81,11.61-25.82,16.46
		c-0.43,0.23-0.68,0.8-1.01,1.21c-28.17,0-56.33-0.04-84.5,0.07c-2.41,0.01-2.9-0.49-2.9-2.9
		C85.41,385.49,85.39,338.45,85.39,291.42z M407.12,187.89c-0.03,0-0.07,0-0.1,0c0,3.9,0.09,7.8-0.03,11.69
		c-0.07,2.33,0.67,3.02,2.8,1.94c6.46-3.27,12.98-6.44,19.36-9.85c6.25-3.34,8.9-9.54,6.73-15.09c-2.6-6.66-9.4-10.29-16.25-8.72
		c-2.66,0.61-4.87,2.26-7.38,3.15c-4.1,1.46-5.9,3.93-5.21,8.42C407.47,182.19,407.12,185.07,407.12,187.89z M407.12,145.51
		c-0.01,0-0.02,0-0.04,0c0,4.17,0.08,8.33-0.03,12.49c-0.06,2.08,0.83,2.41,2.41,1.61c5.86-2.97,11.77-5.86,17.5-9.06
		c3.06-1.71,4.76-4.66,5.19-8.22c1.24-10.16-8.9-17.48-18.92-13.66c-6.12,2.33-6.12,2.33-6.12,8.78
		C407.12,140.13,407.12,142.82,407.12,145.51z M407.05,229.97c-0.01,0-0.01,0-0.02,0c0,3.89,0.15,7.78-0.05,11.66
		c-0.13,2.56,0.87,2.82,2.79,1.86c2.87-1.44,5.71-2.93,8.53-4.46c2.85-1.55,5.47-3.34,6.82-6.53c2.05-4.82,1.37-9.21-2.05-13.09
		c-3.86-4.38-8.89-5.05-14.35-4.15c-1.93,0.32-1.71,1.66-1.69,3.03C407.07,222.19,407.05,226.08,407.05,229.97z"/>
</g>
<path class="st0" d="M265.23,159.47h-24.67c-3.44,0-6.22-2.79-6.22-6.22V129.5c0-3.44,2.79-6.22,6.22-6.22h24.67
	c3.44,0,6.22,2.79,6.22,6.22v23.75C271.46,156.68,268.67,159.47,265.23,159.47z M260.35,130.56h-14.9c-1.62,0-2.93,1.31-2.93,2.93
	v15.77c0,1.62,1.31,2.93,2.93,2.93h14.9c1.62,0,2.93-1.31,2.93-2.93v-15.77C263.28,131.87,261.96,130.56,260.35,130.56z"/>
<path class="st0" d="M315.46,159.47h-24.67c-3.44,0-6.22-2.79-6.22-6.22V129.5c0-3.44,2.79-6.22,6.22-6.22h24.67
	c3.44,0,6.22,2.79,6.22,6.22v23.75C321.68,156.68,318.9,159.47,315.46,159.47z M310.58,130.56h-14.9c-1.62,0-2.93,1.31-2.93,2.93
	v15.77c0,1.62,1.31,2.93,2.93,2.93h14.9c1.62,0,2.93-1.31,2.93-2.93v-15.77C313.51,131.87,312.19,130.56,310.58,130.56z"/>
<path class="st0" d="M365.8,159.47h-24.67c-3.44,0-6.22-2.79-6.22-6.22V129.5c0-3.44,2.79-6.22,6.22-6.22h24.67
	c3.44,0,6.22,2.79,6.22,6.22v23.75C372.03,156.68,369.24,159.47,365.8,159.47z M360.92,130.56h-14.9c-1.62,0-2.93,1.31-2.93,2.93
	v15.77c0,1.62,1.31,2.93,2.93,2.93h14.9c1.62,0,2.93-1.31,2.93-2.93v-15.77C363.85,131.87,362.54,130.56,360.92,130.56z"/>
<path class="st0" d="M265.23,209.8h-24.67c-3.44,0-6.22-2.79-6.22-6.22v-23.75c0-3.44,2.79-6.22,6.22-6.22h24.67
	c3.44,0,6.22,2.79,6.22,6.22v23.75C271.46,207.02,268.67,209.8,265.23,209.8z M260.35,180.89h-14.9c-1.62,0-2.93,1.31-2.93,2.93
	v15.77c0,1.62,1.31,2.93,2.93,2.93h14.9c1.62,0,2.93-1.31,2.93-2.93v-15.77C263.28,182.2,261.96,180.89,260.35,180.89z"/>
<path class="st0" d="M315.46,209.8h-24.67c-3.44,0-6.22-2.79-6.22-6.22v-23.75c0-3.44,2.79-6.22,6.22-6.22h24.67
	c3.44,0,6.22,2.79,6.22,6.22v23.75C321.68,207.02,318.9,209.8,315.46,209.8z M310.58,180.89h-14.9c-1.62,0-2.93,1.31-2.93,2.93
	v15.77c0,1.62,1.31,2.93,2.93,2.93h14.9c1.62,0,2.93-1.31,2.93-2.93v-15.77C313.51,182.2,312.19,180.89,310.58,180.89z"/>
<path class="st0" d="M365.8,209.8h-24.67c-3.44,0-6.22-2.79-6.22-6.22v-23.75c0-3.44,2.79-6.22,6.22-6.22h24.67
	c3.44,0,6.22,2.79,6.22,6.22v23.75C372.03,207.02,369.24,209.8,365.8,209.8z M360.92,180.89h-14.9c-1.62,0-2.93,1.31-2.93,2.93
	v15.77c0,1.62,1.31,2.93,2.93,2.93h14.9c1.62,0,2.93-1.31,2.93-2.93v-15.77C363.85,182.2,362.54,180.89,360.92,180.89z"/>
<path class="st0" d="M265.23,260.13h-24.67c-3.44,0-6.22-2.79-6.22-6.22v-23.75c0-3.44,2.79-6.22,6.22-6.22h24.67
	c3.44,0,6.22,2.79,6.22,6.22v23.75C271.46,257.35,268.67,260.13,265.23,260.13z M260.35,231.22h-14.9c-1.62,0-2.93,1.31-2.93,2.93
	v15.77c0,1.62,1.31,2.93,2.93,2.93h14.9c1.62,0,2.93-1.31,2.93-2.93v-15.77C263.28,232.53,261.96,231.22,260.35,231.22z"/>
<path class="st0" d="M315.46,260.13h-24.67c-3.44,0-6.22-2.79-6.22-6.22v-23.75c0-3.44,2.79-6.22,6.22-6.22h24.67
	c3.44,0,6.22,2.79,6.22,6.22v23.75C321.68,257.35,318.9,260.13,315.46,260.13z M310.58,231.22h-14.9c-1.62,0-2.93,1.31-2.93,2.93
	v15.77c0,1.62,1.31,2.93,2.93,2.93h14.9c1.62,0,2.93-1.31,2.93-2.93v-15.77C313.51,232.53,312.19,231.22,310.58,231.22z"/>
<path class="st0" d="M365.8,260.13h-24.67c-3.44,0-6.22-2.79-6.22-6.22v-23.75c0-3.44,2.79-6.22,6.22-6.22h24.67
	c3.44,0,6.22,2.79,6.22,6.22v23.75C372.03,257.35,369.24,260.13,365.8,260.13z M360.92,231.22h-14.9c-1.62,0-2.93,1.31-2.93,2.93
	v15.77c0,1.62,1.31,2.93,2.93,2.93h14.9c1.62,0,2.93-1.31,2.93-2.93v-15.77C363.85,232.53,362.54,231.22,360.92,231.22z"/>
<path class="st0" d="M362.18,105.13H244.42c-7.04,0-12.74-5.7-12.74-12.74v-16.3c0-7.04,5.7-12.74,12.74-12.74h117.76
	c7.04,0,12.74,5.7,12.74,12.74v16.3C374.92,99.42,369.22,105.13,362.18,105.13z"/>
<path class="st1" d="M359.92,72.92H246.68c-2.38,0-4.31,1.93-4.31,4.31v14c0,2.38,1.93,4.31,4.31,4.31h113.24
	c2.38,0,4.31-1.93,4.31-4.31v-14C364.24,74.85,362.31,72.92,359.92,72.92z"/>
<g>
	<polygon class="st2" points="490.7,495.25 490.7,434.3 83.46,434.3 21.47,495.25 	"/>
	<line class="st3" x1="447.09" y1="434.3" x2="447.09" y2="480.07"/>
	<line class="st4" x1="403.65" y1="434.3" x2="403.65" y2="467.98"/>
	<line class="st4" x1="360.21" y1="434.3" x2="360.21" y2="467.98"/>
	<line class="st3" x1="316.77" y1="434.3" x2="316.77" y2="480.07"/>
	<line class="st4" x1="273.33" y1="434.3" x2="273.33" y2="467.98"/>
	<line class="st4" x1="229.89" y1="434.3" x2="229.89" y2="467.98"/>
	<line class="st3" x1="186.45" y1="434.3" x2="186.45" y2="480.07"/>
	<line class="st4" x1="143.01" y1="434.3" x2="143.01" y2="467.98"/>
	<line class="st4" x1="99.57" y1="434.3" x2="99.57" y2="467.98"/>
</g>
<g>
	<polygon class="st2" points="21.47,26.02 82.42,26.02 82.42,433.25 21.47,495.25 	"/>
	<line class="st3" x1="82.42" y1="69.63" x2="36.65" y2="69.63"/>
	<line class="st4" x1="82.42" y1="113.07" x2="48.74" y2="113.07"/>
	<line class="st4" x1="82.42" y1="156.51" x2="48.74" y2="156.51"/>
	<line class="st3" x1="82.42" y1="199.95" x2="36.65" y2="199.95"/>
	<line class="st4" x1="82.42" y1="243.39" x2="48.74" y2="243.39"/>
	<line class="st4" x1="82.42" y1="286.83" x2="48.74" y2="286.83"/>
	<line class="st3" x1="82.42" y1="330.27" x2="36.65" y2="330.27"/>
	<line class="st4" x1="82.42" y1="373.71" x2="48.74" y2="373.71"/>
	<line class="st4" x1="82.42" y1="417.15" x2="48.74" y2="417.15"/>
</g>
</svg>
