<?xml version="1.0" encoding="utf-8"?>
<!-- Generator: Adobe Illustrator 28.1.0, SVG Export Plug-In . SVG Version: 6.00 Build 0)  -->
<svg version="1.1" id="Layer_1" xmlns="http://www.w3.org/2000/svg" xmlns:xlink="http://www.w3.org/1999/xlink" x="0px" y="0px"
	 viewBox="0 0 192 192" style="enable-background:new 0 0 192 192;" xml:space="preserve">
<style type="text/css">
	.st0{fill:#231F20;}
	.st1{fill:#79BCE7;}
	.st2{fill:#79BCE7;stroke:#231F20;stroke-width:2.2392;stroke-linejoin:bevel;stroke-miterlimit:10;}
	.st3{fill:none;stroke:#231F20;stroke-width:4.4784;stroke-miterlimit:10;}
	.st4{fill:none;stroke:#231F20;stroke-width:2.2392;stroke-miterlimit:10;}
</style>
<g>
	<path class="st0" d="M32.59,108.65c1.73-0.57,3.04-1.84,4.54-2.78c2.02-1.25,2.93-1.18,4.31,0.67
		c9.44,12.58,18.88,25.17,28.31,37.77c1.43,1.91,1.41,1.92,3.4,0.64c1.38-0.89,2.72-1.88,4.16-2.66c0.87-0.47,0.95-0.78,0.38-1.53
		c-4.46-5.89-8.89-11.81-13.33-17.72c-4.26-5.67-8.5-11.35-12.77-17.01c-0.8-1.06-1.05-2.05,0.03-3.04
		c1.01-0.94,2.14-0.92,3.21-0.02c0.46,0.39,0.71,1.56,1.57,0.8c0.94-0.82,2.61-0.92,2.58-2.75c-0.08-4.75-0.08-9.49-0.09-14.24
		c-0.01-5.2,0.03-10.4,0-15.59c-0.02-3.19,1.25-5.98,2.79-8.59c2.3-3.88,3.34-8.06,3.85-12.48c0.24-2.09,0.49-4.22,1.4-6.21
		c1.29-2.82,3.58-3.94,6.47-3.99c1-0.02,1.25-0.17,1.23-1.22c-0.03-6.1-0.03-12.2-0.01-18.3c0.02-3.85,3.72-7.37,8.3-7.37
		c7.2,0,47.58-0.01,60.57,0c3.76,0,6.91,2.56,8,6.1c0.34,1.08,0.39,2.1,0.4,3.16c0.03,5,0.03,10,0.03,14.99
		c0,1.66-0.88,2.55-2.45,2.5c-1.5-0.05-2.15-0.89-2.15-2.61c0.03-5.4,0.05-10.79,0.02-16.19c-0.01-2.2-1.6-3.73-3.83-3.73
		c-20.14-0.01-40.28-0.01-60.42,0c-2.49,0-3.93,1.56-3.93,4.07c0,6.6-0.01,13.19-0.05,19.79c0,0.47-0.01,0.87,0.31,1.25
		c3.39,3.96,3.81,8.7,3.33,13.57c-0.41,4.16-1.75,8.13-3.18,12.04c-0.34,0.92-0.42,1.8-0.41,2.77c0.02,10.4,0,20.79-0.02,31.19
		c-0.01,3.08,1.32,4.43,4.47,4.43c17.99-0.01,35.98-0.03,53.98-0.04c1.8,0,3.6,0.05,5.39,0.08c2.85,0.05,4.37-1.47,4.37-4.29
		c-0.01-18.19,0-36.38-0.01-54.58c0-0.7-0.07-1.4-0.05-2.1c0.03-0.97,0.43-1.77,1.39-2.11c0.9-0.32,1.91-0.33,2.46,0.51
		c0.59,0.89,1.18,0.64,1.89,0.39c4.91-1.68,10.21,0.67,12.17,5.39c1.28,3.09,0.46,6.95-2.07,9.19c-0.77,0.68-0.7,0.8,0.16,1.38
		c5.66,3.84,5.26,11.61-0.62,14.97c-0.91,0.52-1.84,1-2.8,1.42c-0.76,0.33-1.17,0.5-0.22,1.21c5.79,4.35,4.94,12.17-1.63,15.33
		c-1.75,0.84-3.48,1.74-5.24,2.57c-0.66,0.31-0.95,0.65-0.9,1.47c0.11,1.74,0.02,3.49,0.02,5.24c0,4.53-3.28,8.04-7.83,8.18
		c-3.74,0.12-7.5,0.1-11.24,0c-1.35-0.04-2.16,0.36-2.96,1.46c-4.49,6.15-9.78,11.48-16.36,15.41c-4.56,2.72-9.58,4.18-14.76,5.18
		c-3.84,0.74-7.72,1-11.61,1.06c-0.4,0.01-0.81,0.02-1.2-0.04c-1.24-0.21-2.04-0.91-1.99-2.22c0.05-1.25,0.91-1.88,2.07-1.97
		c1.74-0.12,3.49-0.15,5.24-0.17c3.74-0.06,7.33-0.95,10.92-1.84c9.55-2.35,16.43-8.52,22.51-15.81c0.22-0.26,0.54-0.5,0.31-0.9
		c-0.18-0.31-0.53-0.31-0.8-0.21c-1.38,0.49-2.76,0.08-4.14,0.08c-12.39,0-24.79,0-37.18-0.02c-4.16-0.01-7.37-2.67-8.22-6.78
		c0.18-0.55,0.1-1.09-0.03-1.64c0-0.38,0.01-0.75,0.01-1.13c0.04-0.39,0.11-0.78,0.11-1.17c0.01-9.14,0.01-18.27,0-27.41
		c0-0.39-0.07-0.78-0.11-1.17c-0.35-2.41,0.56-4.52,1.4-6.71c2.12-5.53,3.16-11.21,1.37-17.07c-0.43-1.42-1.19-2.64-2.74-3.13
		c-2.04-0.65-3.27,0.03-3.85,2.08c-0.75,2.66-0.86,5.42-1.32,8.12c-0.49,2.89-1.31,5.68-2.86,8.14c-2.63,4.18-3.46,8.68-3.34,13.55
		c0.22,8.63,0.14,17.28,0.28,25.91c0.03,1.57-0.5,2.56-1.81,3.29c-0.95,0.53-1.86,1.15-2.8,1.71c-0.52,0.31-0.61,0.58-0.19,1.13
		c8.06,10.67,16.09,21.37,24.13,32.05c1.29,1.72,1.19,2.68-0.63,3.81c-2.7,1.68-5.18,3.71-8.08,5.06c-0.53,0.24-0.74,0.54-0.13,1.06
		c0.55,0.48,0.96,1.13,1.4,1.73c1.12,1.53,1.01,2.44-0.55,3.45c-3.18,2.06-6.23,4.3-9.58,6.1c-0.16,0.09-0.25,0.3-0.38,0.45
		c-10.45,0-20.89-0.01-31.34,0.03c-0.89,0-1.08-0.18-1.07-1.07C32.6,143.53,32.59,126.09,32.59,108.65z M151.91,70.26
		c-0.01,0-0.03,0-0.04,0c0,1.44,0.03,2.89-0.01,4.33c-0.03,0.86,0.25,1.12,1.04,0.72c2.4-1.21,4.81-2.39,7.18-3.65
		c2.32-1.24,3.3-3.54,2.5-5.6c-0.97-2.47-3.48-3.81-6.03-3.24c-0.99,0.23-1.81,0.84-2.74,1.17c-1.52,0.54-2.19,1.46-1.93,3.12
		C152.04,68.14,151.91,69.21,151.91,70.26z M151.91,54.54L151.91,54.54c-0.01,1.54,0.02,3.09-0.02,4.63
		c-0.02,0.77,0.31,0.89,0.89,0.6c2.17-1.1,4.37-2.17,6.49-3.36c1.14-0.64,1.76-1.73,1.93-3.05c0.46-3.77-3.3-6.48-7.01-5.07
		c-2.27,0.87-2.27,0.87-2.27,3.26C151.91,52.54,151.91,53.54,151.91,54.54z M151.88,85.86L151.88,85.86
		c-0.01,1.44,0.05,2.89-0.03,4.32c-0.05,0.95,0.32,1.05,1.03,0.69c1.06-0.53,2.12-1.09,3.16-1.65c1.06-0.58,2.03-1.24,2.53-2.42
		c0.76-1.79,0.51-3.42-0.76-4.85c-1.43-1.63-3.3-1.87-5.32-1.54c-0.72,0.12-0.63,0.62-0.63,1.13
		C151.89,82.97,151.88,84.42,151.88,85.86z"/>
</g>
<path class="st0" d="M99.48,59.72h-9.15c-1.27,0-2.31-1.03-2.31-2.31V48.6c0-1.27,1.03-2.31,2.31-2.31h9.15
	c1.27,0,2.31,1.03,2.31,2.31v8.81C101.78,58.68,100.75,59.72,99.48,59.72z M97.66,48.99h-5.53c-0.6,0-1.09,0.49-1.09,1.09v5.85
	c0,0.6,0.49,1.09,1.09,1.09h5.53c0.6,0,1.09-0.49,1.09-1.09v-5.85C98.75,49.48,98.26,48.99,97.66,48.99z"/>
<path class="st0" d="M118.1,59.72h-9.15c-1.27,0-2.31-1.03-2.31-2.31V48.6c0-1.27,1.03-2.31,2.31-2.31h9.15
	c1.27,0,2.31,1.03,2.31,2.31v8.81C120.41,58.68,119.38,59.72,118.1,59.72z M116.29,48.99h-5.53c-0.6,0-1.09,0.49-1.09,1.09v5.85
	c0,0.6,0.49,1.09,1.09,1.09h5.53c0.6,0,1.09-0.49,1.09-1.09v-5.85C117.38,49.48,116.89,48.99,116.29,48.99z"/>
<path class="st0" d="M136.77,59.72h-9.15c-1.27,0-2.31-1.03-2.31-2.31V48.6c0-1.27,1.03-2.31,2.31-2.31h9.15
	c1.27,0,2.31,1.03,2.31,2.31v8.81C139.08,58.68,138.05,59.72,136.77,59.72z M134.96,48.99h-5.53c-0.6,0-1.09,0.49-1.09,1.09v5.85
	c0,0.6,0.49,1.09,1.09,1.09h5.53c0.6,0,1.09-0.49,1.09-1.09v-5.85C136.05,49.48,135.56,48.99,134.96,48.99z"/>
<path class="st0" d="M99.48,78.38h-9.15c-1.27,0-2.31-1.03-2.31-2.31v-8.81c0-1.27,1.03-2.31,2.31-2.31h9.15
	c1.27,0,2.31,1.03,2.31,2.31v8.81C101.78,77.35,100.75,78.38,99.48,78.38z M97.66,67.66h-5.53c-0.6,0-1.09,0.49-1.09,1.09v5.85
	c0,0.6,0.49,1.09,1.09,1.09h5.53c0.6,0,1.09-0.49,1.09-1.09v-5.85C98.75,68.14,98.26,67.66,97.66,67.66z"/>
<path class="st0" d="M118.1,78.38h-9.15c-1.27,0-2.31-1.03-2.31-2.31v-8.81c0-1.27,1.03-2.31,2.31-2.31h9.15
	c1.27,0,2.31,1.03,2.31,2.31v8.81C120.41,77.35,119.38,78.38,118.1,78.38z M116.29,67.66h-5.53c-0.6,0-1.09,0.49-1.09,1.09v5.85
	c0,0.6,0.49,1.09,1.09,1.09h5.53c0.6,0,1.09-0.49,1.09-1.09v-5.85C117.38,68.14,116.89,67.66,116.29,67.66z"/>
<path class="st0" d="M136.77,78.38h-9.15c-1.27,0-2.31-1.03-2.31-2.31v-8.81c0-1.27,1.03-2.31,2.31-2.31h9.15
	c1.27,0,2.31,1.03,2.31,2.31v8.81C139.08,77.35,138.05,78.38,136.77,78.38z M134.96,67.66h-5.53c-0.6,0-1.09,0.49-1.09,1.09v5.85
	c0,0.6,0.49,1.09,1.09,1.09h5.53c0.6,0,1.09-0.49,1.09-1.09v-5.85C136.05,68.14,135.56,67.66,134.96,67.66z"/>
<path class="st0" d="M99.48,97.05h-9.15c-1.27,0-2.31-1.03-2.31-2.31v-8.81c0-1.27,1.03-2.31,2.31-2.31h9.15
	c1.27,0,2.31,1.03,2.31,2.31v8.81C101.78,96.01,100.75,97.05,99.48,97.05z M97.66,86.32h-5.53c-0.6,0-1.09,0.49-1.09,1.09v5.85
	c0,0.6,0.49,1.09,1.09,1.09h5.53c0.6,0,1.09-0.49,1.09-1.09v-5.85C98.75,86.81,98.26,86.32,97.66,86.32z"/>
<path class="st0" d="M118.1,97.05h-9.15c-1.27,0-2.31-1.03-2.31-2.31v-8.81c0-1.27,1.03-2.31,2.31-2.31h9.15
	c1.27,0,2.31,1.03,2.31,2.31v8.81C120.41,96.01,119.38,97.05,118.1,97.05z M116.29,86.32h-5.53c-0.6,0-1.09,0.49-1.09,1.09v5.85
	c0,0.6,0.49,1.09,1.09,1.09h5.53c0.6,0,1.09-0.49,1.09-1.09v-5.85C117.38,86.81,116.89,86.32,116.29,86.32z"/>
<path class="st0" d="M136.77,97.05h-9.15c-1.27,0-2.31-1.03-2.31-2.31v-8.81c0-1.27,1.03-2.31,2.31-2.31h9.15
	c1.27,0,2.31,1.03,2.31,2.31v8.81C139.08,96.01,138.05,97.05,136.77,97.05z M134.96,86.32h-5.53c-0.6,0-1.09,0.49-1.09,1.09v5.85
	c0,0.6,0.49,1.09,1.09,1.09h5.53c0.6,0,1.09-0.49,1.09-1.09v-5.85C136.05,86.81,135.56,86.32,134.96,86.32z"/>
<path class="st0" d="M135.43,39.56H91.76c-2.61,0-4.72-2.12-4.72-4.72v-6.05c0-2.61,2.12-4.72,4.72-4.72h43.67
	c2.61,0,4.72,2.12,4.72,4.72v6.05C140.15,37.45,138.04,39.56,135.43,39.56z"/>
<path class="st1" d="M134.59,27.62h-42c-0.88,0-1.6,0.72-1.6,1.6v5.19c0,0.88,0.72,1.6,1.6,1.6h42c0.88,0,1.6-0.72,1.6-1.6v-5.19
	C136.19,28.33,135.48,27.62,134.59,27.62z"/>
<g>
	<polygon class="st2" points="183.09,184.24 183.09,161.63 32.07,161.63 9.08,184.24 	"/>
	<line class="st3" x1="166.92" y1="161.63" x2="166.92" y2="178.61"/>
	<line class="st4" x1="150.81" y1="161.63" x2="150.81" y2="174.13"/>
	<line class="st4" x1="134.7" y1="161.63" x2="134.7" y2="174.13"/>
	<line class="st3" x1="118.59" y1="161.63" x2="118.59" y2="178.61"/>
	<line class="st4" x1="102.48" y1="161.63" x2="102.48" y2="174.13"/>
	<line class="st4" x1="86.37" y1="161.63" x2="86.37" y2="174.13"/>
	<line class="st3" x1="70.26" y1="161.63" x2="70.26" y2="178.61"/>
	<line class="st4" x1="54.15" y1="161.63" x2="54.15" y2="174.13"/>
	<line class="st4" x1="38.04" y1="161.63" x2="38.04" y2="174.13"/>
</g>
<g>
	<polygon class="st2" points="9.08,10.22 31.68,10.22 31.68,161.25 9.08,184.24 	"/>
	<line class="st3" x1="31.68" y1="26.4" x2="14.71" y2="26.4"/>
	<line class="st4" x1="31.68" y1="42.51" x2="19.19" y2="42.51"/>
	<line class="st4" x1="31.68" y1="58.62" x2="19.19" y2="58.62"/>
	<line class="st3" x1="31.68" y1="74.73" x2="14.71" y2="74.73"/>
	<line class="st4" x1="31.68" y1="90.84" x2="19.19" y2="90.84"/>
	<line class="st4" x1="31.68" y1="106.95" x2="19.19" y2="106.95"/>
	<line class="st3" x1="31.68" y1="123.06" x2="14.71" y2="123.06"/>
	<line class="st4" x1="31.68" y1="139.17" x2="19.19" y2="139.17"/>
	<line class="st4" x1="31.68" y1="155.28" x2="19.19" y2="155.28"/>
</g>
</svg>
